<?xml version="1.0" encoding="UTF-8"?> <svg xmlns="http://www.w3.org/2000/svg" width="1700" height="132" viewBox="0 0 1700 132" fill="none"> <mask id="path-1-outside-1_953_58" maskUnits="userSpaceOnUse" x="-2" y="-2.12744" width="1704" height="136" fill="black"> <rect fill="white" x="-2" y="-2.12744" width="1704" height="136"></rect> <path d="M142 42.4363C142 35.8881 141.291 30.7041 139.872 26.8843C138.453 23.0645 136.107 20.1724 132.833 18.208C129.559 16.2435 125.248 14.9884 119.9 14.4427C114.552 13.8971 107.949 13.6242 100.092 13.6242H58.0194C51.0347 13.6242 45.1413 13.8425 40.3393 14.279C35.5918 14.661 31.6629 15.4795 28.5525 16.7346C25.4421 17.9897 23.0411 19.7904 21.3495 22.1369C19.6579 24.4833 18.4301 27.5937 17.6661 31.4681C16.9022 35.3424 16.4656 40.1172 16.3565 45.7923C16.2474 51.4128 16.1928 58.152 16.1928 66.0098C16.1928 73.8677 16.2474 80.6341 16.3565 86.3093C16.5202 91.9298 16.984 96.6772 17.748 100.552C18.512 104.426 19.7125 107.536 21.3495 109.883C23.0411 112.229 25.4421 114.03 28.5525 115.285C31.6629 116.54 35.5918 117.386 40.3393 117.822C45.1413 118.204 51.0347 118.395 58.0194 118.395H100.173C106.285 118.395 111.551 118.232 115.971 117.904C120.391 117.577 124.156 116.977 127.267 116.104C130.377 115.23 132.887 114.03 134.797 112.502C136.707 110.974 138.18 109.064 139.217 106.772C140.308 104.426 141.045 101.643 141.427 98.4234C141.809 95.1493 142 91.3295 142 86.9641V79.1062H78.9737V66.0098H157.716V86.9641C157.716 92.2026 157.388 96.9501 156.734 101.206C156.079 105.408 154.906 109.173 153.214 112.502C151.577 115.776 149.367 118.614 146.584 121.015C143.801 123.416 140.281 125.407 136.025 126.99C131.769 128.518 126.694 129.637 120.8 130.346C114.907 131.11 108.031 131.492 100.173 131.492H58.0194C48.4154 131.492 40.312 130.892 33.7092 129.691C27.161 128.545 21.7588 126.799 17.5024 124.453C13.2461 122.052 9.94473 119.05 7.59829 115.449C5.30642 111.847 3.6148 107.618 2.52343 102.762C1.48664 97.905 0.886384 92.4209 0.722679 86.3093C0.558974 80.1976 0.477121 73.4311 0.477121 66.0098C0.477121 58.5885 0.558974 51.8221 0.722679 45.7104C0.886384 39.5988 1.48664 34.1146 2.52343 29.2581C3.6148 24.4015 5.30642 20.1724 7.59829 16.5709C9.94473 12.9694 13.2461 9.99543 17.5024 7.64899C21.7588 5.24798 27.161 3.47451 33.7092 2.32858C40.312 1.12807 48.4154 0.527822 58.0194 0.527822H100.092C107.949 0.527822 114.825 0.9098 120.718 1.67376C126.612 2.38315 131.687 3.5018 135.943 5.02971C140.199 6.50306 143.719 8.38566 146.502 10.6775C149.34 12.9694 151.577 15.6705 153.214 18.7809C154.906 21.8913 156.079 25.411 156.734 29.3399C157.388 33.2688 157.716 37.6343 157.716 42.4363H142ZM328.051 128.873H312.335V105.299C312.335 101.479 312.253 98.2052 312.09 95.4767C311.98 92.6937 311.517 90.32 310.698 88.3556C309.934 86.3911 308.706 84.8086 307.015 83.6081C305.323 82.4076 302.922 81.48 299.812 80.8251C296.701 80.1703 292.745 79.7338 287.943 79.5155C283.196 79.2427 277.33 79.1062 270.345 79.1062H199.706V128.873H183.99V3.1471H272.964C282.568 3.1471 290.644 3.5018 297.192 4.21118C303.795 4.86601 309.225 5.87552 313.481 7.23973C317.792 8.60394 321.093 10.2956 323.385 12.3146C325.732 14.3336 327.423 16.7073 328.46 19.4358C329.551 22.1642 330.179 25.22 330.343 28.6032C330.561 31.9865 330.67 35.7244 330.67 39.817C330.67 45.0556 330.288 49.6666 329.524 53.6501C328.815 57.579 327.587 60.935 325.841 63.718C324.095 66.5009 321.776 68.7382 318.883 70.4299C315.991 72.0669 312.362 73.2129 307.997 73.8677C312.362 74.5225 315.855 75.6684 318.474 77.3055C321.093 78.9425 323.112 81.0707 324.531 83.69C325.95 86.3093 326.878 89.4196 327.314 93.0212C327.805 96.6227 328.051 100.715 328.051 105.299V128.873ZM199.706 66.0098H272.964C279.949 66.0098 285.815 65.9007 290.562 65.6824C295.364 65.4096 299.321 64.9457 302.431 64.2909C305.541 63.6361 307.942 62.7084 309.634 61.5079C311.326 60.3074 312.553 58.725 313.317 56.7605C314.136 54.796 314.6 52.4496 314.709 49.7212C314.873 46.9382 314.954 43.6368 314.954 39.817C314.954 36.2701 314.873 33.2143 314.709 30.6495C314.6 28.0848 314.136 25.9294 313.317 24.1832C312.553 22.437 311.326 21.0455 309.634 20.0087C307.942 18.9719 305.541 18.1807 302.431 17.635C299.321 17.0347 295.364 16.6528 290.562 16.4891C285.815 16.3254 279.949 16.2435 272.964 16.2435H199.706V66.0098ZM356.863 128.873V3.1471H482.588V16.2435H372.579V58.152H477.35V71.2484H372.579V115.776H482.588V128.873H356.863ZM503.543 128.873V3.1471H629.268V16.2435H519.258V58.152H624.03V71.2484H519.258V115.776H629.268V128.873H503.543ZM665.938 128.873H650.222V3.1471H677.807L793.055 113.157V3.1471H808.771V128.873H787.816L665.938 16.2435V128.873ZM971.166 42.4363C971.166 35.8881 970.457 30.7041 969.038 26.8843C967.619 23.0645 965.273 20.1724 961.999 18.208C958.724 16.2435 954.414 14.9884 949.066 14.4427C943.773 13.8971 937.197 13.6242 929.339 13.6242H892.588C885.603 13.6242 879.709 13.8425 874.907 14.279C870.16 14.661 866.231 15.4795 863.121 16.7346C860.01 17.9897 857.609 19.7904 855.918 22.1369C854.226 24.4833 852.998 27.5937 852.234 31.4681C851.47 35.3424 851.034 40.1172 850.925 45.7923C850.816 51.4128 850.761 58.152 850.761 66.0098C850.761 73.8677 850.816 80.6341 850.925 86.3093C851.088 91.9298 851.552 96.6772 852.316 100.552C853.08 104.426 854.281 107.536 855.918 109.883C857.609 112.229 860.01 114.03 863.121 115.285C866.231 116.54 870.16 117.386 874.907 117.822C879.709 118.204 885.603 118.395 892.588 118.395H929.339C935.451 118.395 940.717 118.232 945.137 117.904C949.557 117.577 953.322 116.977 956.433 116.104C959.543 115.23 962.053 114.03 963.963 112.502C965.873 110.974 967.346 109.064 968.383 106.772C969.474 104.426 970.211 101.643 970.593 98.4234C970.975 95.1493 971.166 91.3295 971.166 86.9641H986.882C986.882 92.2026 986.554 96.9501 985.899 101.206C985.245 105.408 984.071 109.173 982.38 112.502C980.743 115.776 978.533 118.614 975.75 121.015C972.967 123.416 969.447 125.407 965.191 126.99C960.934 128.518 955.86 129.637 949.966 130.346C944.073 131.11 937.197 131.492 929.339 131.492H892.588C882.984 131.492 874.88 130.892 868.277 129.691C861.729 128.545 856.327 126.799 852.071 124.453C847.814 122.052 844.513 119.05 842.166 115.449C839.875 111.847 838.183 107.618 837.092 102.762C836.055 97.905 835.455 92.4209 835.291 86.3093C835.127 80.1976 835.045 73.4311 835.045 66.0098C835.045 58.5885 835.127 51.8221 835.291 45.7104C835.455 39.5988 836.055 34.1146 837.092 29.2581C838.183 24.4015 839.875 20.1724 842.166 16.5709C844.513 12.9694 847.814 9.99543 852.071 7.64899C856.327 5.24798 861.729 3.47451 868.277 2.32858C874.88 1.12807 882.984 0.527822 892.588 0.527822H929.339C937.197 0.527822 944.073 0.9098 949.966 1.67376C955.86 2.38315 960.934 3.5018 965.191 5.02971C969.447 6.50306 972.967 8.38566 975.75 10.6775C978.533 12.9694 980.743 15.6705 982.38 18.7809C984.071 21.8913 985.245 25.411 985.899 29.3399C986.554 33.2688 986.882 37.6343 986.882 42.4363H971.166ZM1136.26 100.06H1036.73L1021.01 128.873H1002.68L1076.02 3.1471H1096.97L1170.31 128.873H1151.98L1136.26 100.06ZM1128.4 86.9641L1086.5 13.6242L1044.59 86.9641H1128.4ZM1335.33 128.873H1319.61V105.299C1319.61 101.479 1319.53 98.2052 1319.37 95.4767C1319.26 92.6937 1318.79 90.32 1317.98 88.3556C1317.21 86.3911 1315.98 84.8086 1314.29 83.6081C1312.6 82.4076 1310.2 81.48 1307.09 80.8251C1303.98 80.1703 1300.02 79.7338 1295.22 79.5155C1290.47 79.2427 1284.61 79.1062 1277.62 79.1062H1206.98V128.873H1191.27V3.1471H1280.24C1289.85 3.1471 1297.92 3.5018 1304.47 4.21118C1311.07 4.86601 1316.5 5.87552 1320.76 7.23973C1325.07 8.60394 1328.37 10.2956 1330.66 12.3146C1333.01 14.3336 1334.7 16.7073 1335.74 19.4358C1336.83 22.1642 1337.46 25.22 1337.62 28.6032C1337.84 31.9865 1337.95 35.7244 1337.95 39.817C1337.95 45.0556 1337.57 49.6666 1336.8 53.6501C1336.09 57.579 1334.86 60.935 1333.12 63.718C1331.37 66.5009 1329.05 68.7382 1326.16 70.4299C1323.27 72.0669 1319.64 73.2129 1315.27 73.8677C1319.64 74.5225 1323.13 75.6684 1325.75 77.3055C1328.37 78.9425 1330.39 81.0707 1331.81 83.69C1333.23 86.3093 1334.15 89.4196 1334.59 93.0212C1335.08 96.6227 1335.33 100.715 1335.33 105.299V128.873ZM1206.98 66.0098H1280.24C1287.23 66.0098 1293.09 65.9007 1297.84 65.6824C1302.64 65.4096 1306.6 64.9457 1309.71 64.2909C1312.82 63.6361 1315.22 62.7084 1316.91 61.5079C1318.6 60.3074 1319.83 58.725 1320.59 56.7605C1321.41 54.796 1321.88 52.4496 1321.99 49.7212C1322.15 46.9382 1322.23 43.6368 1322.23 39.817C1322.23 36.2701 1322.15 33.2143 1321.99 30.6495C1321.88 28.0848 1321.41 25.9294 1320.59 24.1832C1319.83 22.437 1318.6 21.0455 1316.91 20.0087C1315.22 18.9719 1312.82 18.1807 1309.71 17.635C1306.6 17.0347 1302.64 16.6528 1297.84 16.4891C1293.09 16.3254 1287.23 16.2435 1280.24 16.2435H1206.98V66.0098ZM1500.42 42.4363C1500.42 35.8881 1499.72 30.7041 1498.3 26.8843C1496.88 23.0645 1494.53 20.1724 1491.26 18.208C1487.98 16.2435 1483.67 14.9884 1478.32 14.4427C1472.98 13.8971 1466.37 13.6242 1458.52 13.6242H1416.44C1409.46 13.6242 1403.57 13.8425 1398.76 14.279C1394.02 14.661 1390.09 15.4795 1386.98 16.7346C1383.87 17.9897 1381.47 19.7904 1379.77 22.1369C1378.08 24.4833 1376.85 27.5937 1376.09 31.4681C1375.33 35.3424 1374.89 40.1172 1374.78 45.7923C1374.67 51.4128 1374.62 58.152 1374.62 66.0098C1374.62 73.8677 1374.67 80.6341 1374.78 86.3093C1374.94 91.9298 1375.41 96.6772 1376.17 100.552C1376.94 104.426 1378.14 107.536 1379.77 109.883C1381.47 112.229 1383.87 114.03 1386.98 115.285C1390.09 116.54 1394.02 117.386 1398.76 117.822C1403.57 118.204 1409.46 118.395 1416.44 118.395H1458.6C1464.71 118.395 1469.98 118.232 1474.4 117.904C1478.82 117.577 1482.58 116.977 1485.69 116.104C1488.8 115.23 1491.31 114.03 1493.22 112.502C1495.13 110.974 1496.6 109.064 1497.64 106.772C1498.73 104.426 1499.47 101.643 1499.85 98.4234C1500.23 95.1493 1500.42 91.3295 1500.42 86.9641V79.1062H1437.4V66.0098H1516.14V86.9641C1516.14 92.2026 1515.81 96.9501 1515.16 101.206C1514.5 105.408 1513.33 109.173 1511.64 112.502C1510 115.776 1507.79 118.614 1505.01 121.015C1502.23 123.416 1498.71 125.407 1494.45 126.99C1490.19 128.518 1485.12 129.637 1479.22 130.346C1473.33 131.11 1466.46 131.492 1458.6 131.492H1416.44C1406.84 131.492 1398.74 130.892 1392.13 129.691C1385.59 128.545 1380.18 126.799 1375.93 124.453C1371.67 122.052 1368.37 119.05 1366.02 115.449C1363.73 111.847 1362.04 107.618 1360.95 102.762C1359.91 97.905 1359.31 92.4209 1359.15 86.3093C1358.98 80.1976 1358.9 73.4311 1358.9 66.0098C1358.9 58.5885 1358.98 51.8221 1359.15 45.7104C1359.31 39.5988 1359.91 34.1146 1360.95 29.2581C1362.04 24.4015 1363.73 20.1724 1366.02 16.5709C1368.37 12.9694 1371.67 9.99543 1375.93 7.64899C1380.18 5.24798 1385.59 3.47451 1392.13 2.32858C1398.74 1.12807 1406.84 0.527822 1416.44 0.527822H1458.52C1466.37 0.527822 1473.25 0.9098 1479.14 1.67376C1485.04 2.38315 1490.11 3.5018 1494.37 5.02971C1498.62 6.50306 1502.14 8.38566 1504.93 10.6775C1507.76 12.9694 1510 15.6705 1511.64 18.7809C1513.33 21.8913 1514.5 25.411 1515.16 29.3399C1515.81 33.2688 1516.14 37.6343 1516.14 42.4363H1500.42ZM1642.03 0.527822C1651.63 0.527822 1659.71 1.12807 1666.26 2.32858C1672.86 3.47451 1678.29 5.24798 1682.55 7.64899C1686.8 9.99543 1690.08 12.9694 1692.37 16.5709C1694.66 20.1724 1696.32 24.4015 1697.36 29.2581C1698.45 34.1146 1699.08 39.5988 1699.24 45.7104C1699.46 51.8221 1699.57 58.5885 1699.57 66.0098C1699.57 73.4311 1699.46 80.1976 1699.24 86.3093C1699.08 92.4209 1698.45 97.905 1697.36 102.762C1696.32 107.618 1694.66 111.847 1692.37 115.449C1690.08 119.05 1686.8 122.052 1682.55 124.453C1678.29 126.799 1672.86 128.545 1666.26 129.691C1659.71 130.892 1651.63 131.492 1642.03 131.492H1594.72C1585.11 131.492 1577.01 130.892 1570.41 129.691C1563.86 128.545 1558.46 126.799 1554.2 124.453C1549.95 122.052 1546.64 119.05 1544.3 115.449C1542.01 111.847 1540.31 107.618 1539.22 102.762C1538.19 97.905 1537.59 92.4209 1537.42 86.3093C1537.26 80.1976 1537.18 73.4311 1537.18 66.0098C1537.18 58.5885 1537.26 51.8221 1537.42 45.7104C1537.59 39.5988 1538.19 34.1146 1539.22 29.2581C1540.31 24.4015 1542.01 20.1724 1544.3 16.5709C1546.64 12.9694 1549.95 9.99543 1554.2 7.64899C1558.46 5.24798 1563.86 3.47451 1570.41 2.32858C1577.01 1.12807 1585.11 0.527822 1594.72 0.527822H1642.03ZM1642.03 118.395C1648.96 118.395 1654.8 118.204 1659.55 117.822C1664.35 117.386 1668.3 116.54 1671.41 115.285C1674.52 114.03 1676.93 112.229 1678.62 109.883C1680.31 107.536 1681.54 104.426 1682.3 100.552C1683.06 96.6772 1683.5 91.9298 1683.61 86.3093C1683.77 80.6341 1683.86 73.8677 1683.86 66.0098C1683.86 58.152 1683.77 51.4128 1683.61 45.7923C1683.5 40.1172 1683.06 35.3424 1682.3 31.4681C1681.54 27.5937 1680.31 24.4833 1678.62 22.1369C1676.93 19.7904 1674.52 17.9897 1671.41 16.7346C1668.36 15.4795 1664.43 14.661 1659.63 14.279C1654.88 13.8425 1649.01 13.6242 1642.03 13.6242H1594.72C1587.73 13.6242 1581.84 13.8425 1577.04 14.279C1572.29 14.661 1568.36 15.4795 1565.25 16.7346C1562.14 17.9897 1559.74 19.7904 1558.05 22.1369C1556.36 24.4833 1555.13 27.5937 1554.37 31.4681C1553.6 35.3424 1553.16 40.1172 1553.06 45.7923C1552.95 51.4128 1552.89 58.152 1552.89 66.0098C1552.89 73.8677 1552.95 80.6341 1553.06 86.3093C1553.22 91.9298 1553.68 96.6772 1554.45 100.552C1555.21 104.426 1556.41 107.536 1558.05 109.883C1559.74 112.229 1562.14 114.03 1565.25 115.285C1568.36 116.54 1572.29 117.386 1577.04 117.822C1581.84 118.204 1587.73 118.395 1594.72 118.395H1642.03Z"></path> </mask> <path d="M142 42.4363H140V44.4363H142V42.4363ZM40.3393 14.279L40.4997 16.2726L40.51 16.2718L40.5204 16.2708L40.3393 14.279ZM16.3565 45.7923L18.3561 45.8311L18.3561 45.8307L16.3565 45.7923ZM16.3565 86.3093L14.3569 86.3477L14.3571 86.3576L14.3574 86.3675L16.3565 86.3093ZM21.3495 109.883L19.7093 111.027L19.7181 111.04L19.7272 111.052L21.3495 109.883ZM40.3393 117.822L40.1562 119.814L40.1684 119.815L40.1807 119.816L40.3393 117.822ZM139.217 106.772L137.404 105.929L137.399 105.938L137.395 105.948L139.217 106.772ZM141.427 98.4234L143.413 98.6591L143.414 98.6552L141.427 98.4234ZM142 79.1062H144V77.1062H142V79.1062ZM78.9737 79.1062H76.9737V81.1062H78.9737V79.1062ZM78.9737 66.0098V64.0098H76.9737V66.0098H78.9737ZM157.716 66.0098H159.716V64.0098H157.716V66.0098ZM156.734 101.206L158.71 101.514L158.71 101.511L156.734 101.206ZM153.214 112.502L151.431 111.596L151.425 111.608L153.214 112.502ZM136.025 126.99L136.701 128.872L136.711 128.869L136.722 128.865L136.025 126.99ZM120.8 130.346L120.561 128.36L120.552 128.361L120.543 128.362L120.8 130.346ZM33.7092 129.691L34.067 127.723L34.054 127.721L33.7092 129.691ZM17.5024 124.453L16.5198 126.194L16.5283 126.199L16.5369 126.204L17.5024 124.453ZM7.59829 115.449L5.91097 116.522L5.91672 116.532L5.92256 116.541L7.59829 115.449ZM2.52343 102.762L0.567508 103.179L0.569747 103.19L0.572097 103.2L2.52343 102.762ZM2.52343 29.2581L0.572097 28.8196L0.569747 28.83L0.567508 28.8405L2.52343 29.2581ZM7.59829 16.5709L5.92256 15.4792L5.91672 15.4881L5.91097 15.4972L7.59829 16.5709ZM17.5024 7.64899L18.468 9.40047L18.4766 9.39575L18.4851 9.39095L17.5024 7.64899ZM33.7092 2.32858L34.054 4.29868L34.067 4.29632L33.7092 2.32858ZM120.718 1.67376L120.461 3.65716L120.47 3.65833L120.479 3.65942L120.718 1.67376ZM135.943 5.02971L135.267 6.9121L135.278 6.91595L135.289 6.91968L135.943 5.02971ZM146.502 10.6775L145.231 12.2214L145.238 12.2274L145.245 12.2334L146.502 10.6775ZM153.214 18.7809L151.444 19.7124L151.45 19.7245L151.457 19.7365L153.214 18.7809ZM157.716 42.4363V44.4363H159.716V42.4363H157.716ZM144 42.4363C144 35.7768 143.283 30.3244 141.747 26.188L137.997 27.5807C139.298 31.0838 140 35.9994 140 42.4363H144ZM141.747 26.188C140.181 21.9731 137.552 18.7074 133.862 16.493L131.804 19.923C134.661 21.6374 136.725 24.156 137.997 27.5807L141.747 26.188ZM133.862 16.493C130.255 14.3289 125.632 13.0172 120.103 12.4531L119.697 16.4324C124.864 16.9596 128.862 18.1581 131.804 19.923L133.862 16.493ZM120.103 12.4531C114.665 11.8982 107.989 11.6242 100.092 11.6242V15.6242C107.91 15.6242 114.44 15.896 119.697 16.4324L120.103 12.4531ZM100.092 11.6242H58.0194V15.6242H100.092V11.6242ZM58.0194 11.6242C50.9985 11.6242 45.0405 11.8434 40.1582 12.2873L40.5204 16.2708C45.2421 15.8416 51.0709 15.6242 58.0194 15.6242V11.6242ZM40.1789 12.2855C35.307 12.6775 31.1629 13.5246 27.8041 14.8799L29.3009 18.5893C32.1629 17.4345 35.8767 16.6446 40.4997 16.2726L40.1789 12.2855ZM27.8041 14.8799C24.4006 16.2533 21.673 18.2683 19.7272 20.9673L22.9719 23.3065C24.4093 21.3126 26.4837 19.7261 29.3009 18.5893L27.8041 14.8799ZM19.7272 20.9673C17.8176 23.616 16.5044 27.0217 15.7039 31.0812L19.6284 31.855C20.3558 28.1657 21.4981 25.3507 22.9719 23.3065L19.7272 20.9673ZM15.7039 31.0812C14.9099 35.1081 14.4674 40.0077 14.3569 45.7538L18.3561 45.8307C18.4639 40.2266 18.8945 35.5768 19.6284 31.855L15.7039 31.0812ZM14.3569 45.7534C14.2474 51.3909 14.1928 58.1437 14.1928 66.0098H18.1928C18.1928 58.1603 18.2473 51.4347 18.3561 45.8311L14.3569 45.7534ZM14.1928 66.0098C14.1928 73.876 14.2474 80.656 14.3569 86.3477L18.3561 86.2708C18.2473 80.6123 18.1928 73.8593 18.1928 66.0098H14.1928ZM14.3574 86.3675C14.523 92.0562 14.9936 96.921 15.7858 100.939L19.7102 100.165C18.9745 96.4334 18.5174 91.8034 18.3557 86.251L14.3574 86.3675ZM15.7858 100.939C16.5843 104.988 17.8654 108.384 19.7093 111.027L22.9898 108.738C21.5595 106.688 20.4396 103.864 19.7102 100.165L15.7858 100.939ZM19.7272 111.052C21.673 113.751 24.4006 115.766 27.8041 117.14L29.3009 113.43C26.4837 112.294 24.4093 110.707 22.9719 108.713L19.7272 111.052ZM27.8041 117.14C31.1536 118.491 35.2892 119.367 40.1562 119.814L40.5224 115.831C35.8945 115.405 32.1722 114.589 29.3009 113.43L27.8041 117.14ZM40.1807 119.816C45.0531 120.204 51.003 120.395 58.0194 120.395V116.395C51.0664 116.395 45.2295 116.205 40.4979 115.829L40.1807 119.816ZM58.0194 120.395H100.173V116.395H58.0194V120.395ZM100.173 120.395C106.317 120.395 111.635 120.231 116.119 119.899L115.823 115.91C111.467 116.232 106.253 116.395 100.173 116.395V120.395ZM116.119 119.899C120.626 119.565 124.531 118.949 127.807 118.029L126.726 114.178C123.781 115.005 120.156 115.589 115.823 115.91L116.119 119.899ZM127.807 118.029C131.097 117.106 133.872 115.804 136.046 114.064L133.548 110.94C131.903 112.256 129.657 113.355 126.726 114.178L127.807 118.029ZM136.046 114.064C138.21 112.333 139.876 110.168 141.039 107.597L137.395 105.948C136.484 107.961 135.204 109.615 133.548 110.94L136.046 114.064ZM141.031 107.616C142.231 105.036 143.012 102.038 143.413 98.6591L139.441 98.1878C139.078 101.248 138.386 103.816 137.404 105.929L141.031 107.616ZM143.414 98.6552C143.807 95.2841 144 91.3838 144 86.9641H140C140 91.2753 139.811 95.0145 139.441 98.1917L143.414 98.6552ZM144 86.9641V79.1062H140V86.9641H144ZM142 77.1062H78.9737V81.1062H142V77.1062ZM80.9737 79.1062V66.0098H76.9737V79.1062H80.9737ZM78.9737 68.0098H157.716V64.0098H78.9737V68.0098ZM155.716 66.0098V86.9641H159.716V66.0098H155.716ZM155.716 86.9641C155.716 92.1218 155.393 96.7654 154.757 100.902L158.71 101.511C159.383 97.1348 159.716 92.2835 159.716 86.9641H155.716ZM154.757 100.898C154.131 104.92 153.015 108.479 151.431 111.596L154.997 113.408C156.796 109.867 158.027 105.896 158.71 101.514L154.757 100.898ZM151.425 111.608C149.907 114.644 147.861 117.271 145.277 119.5L147.89 122.529C150.873 119.956 153.247 116.908 155.003 113.396L151.425 111.608ZM145.277 119.5C142.711 121.714 139.412 123.597 135.328 125.115L136.722 128.865C141.151 127.218 144.89 125.117 147.89 122.529L145.277 119.5ZM135.349 125.108C131.27 126.572 126.349 127.664 120.561 128.36L121.039 132.332C127.038 131.609 132.267 130.464 136.701 128.872L135.349 125.108ZM120.543 128.362C114.757 129.113 107.971 129.492 100.173 129.492V133.492C108.092 133.492 115.057 133.107 121.057 132.329L120.543 128.362ZM100.173 129.492H58.0194V133.492H100.173V129.492ZM58.0194 129.492C48.4888 129.492 40.5134 128.895 34.067 127.723L33.3515 131.659C40.1107 132.888 48.342 133.492 58.0194 133.492V129.492ZM34.054 127.721C27.6491 126.6 22.4743 124.91 18.468 122.701L16.5369 126.204C21.0432 128.688 26.673 130.49 33.3645 131.661L34.054 127.721ZM18.4851 122.711C14.47 120.446 11.4223 117.654 9.27402 114.357L5.92256 116.541C8.46716 120.446 12.0222 123.657 16.5198 126.194L18.4851 122.711ZM9.28561 114.375C7.13648 110.998 5.52373 106.991 4.47477 102.323L0.572097 103.2C1.70587 108.245 3.47636 112.697 5.91097 116.522L9.28561 114.375ZM4.47936 102.344C3.47318 97.6309 2.88311 92.2718 2.72196 86.2557L-1.2766 86.3628C-1.11034 92.57 -0.499909 98.1792 0.567508 103.179L4.47936 102.344ZM2.72196 86.2557C2.55882 80.1652 2.47712 73.4169 2.47712 66.0098H-1.52288C-1.52288 73.4454 -1.44087 80.23 -1.2766 86.3628L2.72196 86.2557ZM2.47712 66.0098C2.47712 58.6028 2.55882 51.8545 2.72196 45.764L-1.2766 45.6569C-1.44087 51.7896 -1.52288 58.5743 -1.52288 66.0098H2.47712ZM2.72196 45.764C2.88311 39.7479 3.47318 34.3888 4.47936 29.6756L0.567508 28.8405C-0.499909 33.8405 -1.11034 39.4496 -1.2766 45.6569L2.72196 45.764ZM4.47477 29.6966C5.52373 25.0287 7.13648 21.0219 9.28561 17.6447L5.91097 15.4972C3.47636 19.323 1.70587 23.7743 0.572097 28.8196L4.47477 29.6966ZM9.27402 17.6627C11.4191 14.3702 14.4609 11.6095 18.468 9.40047L16.5369 5.89751C12.0313 8.38134 8.47033 11.5686 5.92256 15.4792L9.27402 17.6627ZM18.4851 9.39095C22.4862 7.1339 27.6546 5.41853 34.054 4.29864L33.3645 0.358516C26.6675 1.5305 21.0313 3.36207 16.5198 5.90703L18.4851 9.39095ZM34.067 4.29632C40.5134 3.12426 48.4888 2.52782 58.0194 2.52782V-1.47218C48.342 -1.47218 40.1107 -0.868108 33.3515 0.360837L34.067 4.29632ZM58.0194 2.52782H100.092V-1.47218H58.0194V2.52782ZM100.092 2.52782C107.889 2.52782 114.675 2.90712 120.461 3.65716L120.976 -0.309648C114.975 -1.08752 108.01 -1.47218 100.092 -1.47218V2.52782ZM120.479 3.65942C126.267 4.3561 131.188 5.44779 135.267 6.9121L136.619 3.14732C132.185 1.55581 126.956 0.410188 120.957 -0.311909L120.479 3.65942ZM135.289 6.91968C139.374 8.33389 142.67 10.1131 145.231 12.2214L147.773 9.13367C144.768 6.65826 141.024 4.67222 136.597 3.13974L135.289 6.91968ZM145.245 12.2334C147.879 14.3608 149.939 16.852 151.444 19.7124L154.984 17.8494C153.215 14.489 150.8 11.578 147.759 9.12165L145.245 12.2334ZM151.457 19.7365C153.03 22.6286 154.138 25.9321 154.761 29.6687L158.706 29.0111C158.019 24.8899 156.781 21.154 154.971 17.8254L151.457 19.7365ZM154.761 29.6687C155.394 33.4695 155.716 37.7229 155.716 42.4363H159.716C159.716 37.5457 159.383 33.0681 158.706 29.0111L154.761 29.6687ZM157.716 40.4363H142V44.4363H157.716V40.4363ZM328.051 128.873V130.873H330.051V128.873H328.051ZM312.335 128.873H310.335V130.873H312.335V128.873ZM312.09 95.4767L310.091 95.5551L310.092 95.5758L310.093 95.5965L312.09 95.4767ZM310.698 88.3556L308.834 89.0805L308.843 89.1027L308.852 89.1248L310.698 88.3556ZM287.943 79.5155L287.828 81.5122L287.84 81.5129L287.852 81.5134L287.943 79.5155ZM199.706 79.1062V77.1062H197.706V79.1062H199.706ZM199.706 128.873V130.873H201.706V128.873H199.706ZM183.99 128.873H181.99V130.873H183.99V128.873ZM183.99 3.1471V1.1471H181.99V3.1471H183.99ZM297.192 4.21118L296.977 6.19955L296.986 6.20053L296.995 6.20142L297.192 4.21118ZM313.481 7.23973L312.871 9.14431L312.878 9.14653L313.481 7.23973ZM323.385 12.3146L322.063 13.8153L322.072 13.823L322.081 13.8306L323.385 12.3146ZM328.46 19.4358L326.591 20.1462L326.597 20.1624L326.603 20.1785L328.46 19.4358ZM330.343 28.6032L328.345 28.6999L328.346 28.716L328.347 28.732L330.343 28.6032ZM329.524 53.6501L327.56 53.2734L327.558 53.2841L327.556 53.2947L329.524 53.6501ZM318.883 70.4299L319.869 72.1704L319.881 72.1634L319.893 72.1562L318.883 70.4299ZM307.997 73.8677L307.7 71.8898V75.8455L307.997 73.8677ZM327.314 93.0212L325.329 93.2618L325.331 93.2766L325.333 93.2914L327.314 93.0212ZM199.706 66.0098H197.706V68.0098H199.706V66.0098ZM290.562 65.6824L290.654 67.6803L290.665 67.6798L290.676 67.6792L290.562 65.6824ZM313.317 56.7605L311.471 55.9913L311.462 56.0133L311.453 56.0356L313.317 56.7605ZM314.709 49.7212L312.712 49.6037L312.711 49.6225L312.711 49.6412L314.709 49.7212ZM314.709 30.6495L312.711 30.7346L312.712 30.7558L312.713 30.7769L314.709 30.6495ZM313.317 24.1832L311.485 24.9848L311.495 25.0086L311.506 25.0321L313.317 24.1832ZM302.431 17.635L302.052 19.5988L302.069 19.602L302.085 19.6049L302.431 17.635ZM290.562 16.4891L290.493 18.4879L290.494 18.4879L290.562 16.4891ZM199.706 16.2435V14.2435H197.706V16.2435H199.706ZM328.051 126.873H312.335V130.873H328.051V126.873ZM314.335 128.873V105.299H310.335V128.873H314.335ZM314.335 105.299C314.335 101.454 314.253 98.1374 314.086 95.3569L310.093 95.5965C310.254 98.2729 310.335 101.505 310.335 105.299H314.335ZM314.088 95.3984C313.972 92.4472 313.478 89.8263 312.544 87.5863L308.852 89.1248C309.556 90.8138 309.989 92.9403 310.091 95.5551L314.088 95.3984ZM312.562 87.6307C311.659 85.3078 310.188 83.4079 308.172 81.9771L305.857 85.2391C307.224 86.2094 308.21 87.4744 308.834 89.0805L312.562 87.6307ZM308.172 81.9771C306.17 80.5564 303.474 79.5523 300.224 78.868L299.4 82.7822C302.37 83.4076 304.476 84.2588 305.857 85.2391L308.172 81.9771ZM300.224 78.868C296.969 78.1827 292.895 77.7385 288.034 77.5176L287.852 81.5134C292.595 81.729 296.434 82.1579 299.4 82.7822L300.224 78.868ZM288.058 77.5188C283.259 77.243 277.352 77.1062 270.345 77.1062V81.1062C277.307 81.1062 283.132 81.2423 287.828 81.5122L288.058 77.5188ZM270.345 77.1062H199.706V81.1062H270.345V77.1062ZM197.706 79.1062V128.873H201.706V79.1062H197.706ZM199.706 126.873H183.99V130.873H199.706V126.873ZM185.99 128.873V3.1471H181.99V128.873H185.99ZM183.99 5.1471H272.964V1.1471H183.99V5.1471ZM272.964 5.1471C282.526 5.1471 290.525 5.50054 296.977 6.19955L297.408 2.22282C290.764 1.50305 282.611 1.1471 272.964 1.1471V5.1471ZM296.995 6.20142C303.518 6.84833 308.796 7.8384 312.871 9.14429L314.092 5.33516C309.653 3.91264 304.072 2.88368 297.39 2.22095L296.995 6.20142ZM312.878 9.14653C317.04 10.4636 320.055 12.0465 322.063 13.8153L324.707 10.8139C322.131 8.54457 318.544 6.74425 314.085 5.33293L312.878 9.14653ZM322.081 13.8306C324.19 15.6459 325.679 17.7481 326.591 20.1462L330.33 18.7253C329.167 15.6666 327.273 13.0213 324.69 10.7986L322.081 13.8306ZM326.603 20.1785C327.601 22.6721 328.19 25.5051 328.345 28.6999L332.34 28.5066C332.168 24.9349 331.502 21.6562 330.317 18.693L326.603 20.1785ZM328.347 28.732C328.562 32.0647 328.67 35.7589 328.67 39.817H332.67C332.67 35.6899 332.56 31.9082 332.339 28.4745L328.347 28.732ZM328.67 39.817C328.67 44.9636 328.294 49.4438 327.56 53.2734L331.488 54.0268C332.282 49.8894 332.67 45.1476 332.67 39.817H328.67ZM327.556 53.2947C326.883 57.0251 325.731 60.1293 324.147 62.655L327.535 64.7809C329.443 61.7407 330.747 58.133 331.492 54.0055L327.556 53.2947ZM324.147 62.655C322.575 65.1593 320.493 67.1713 317.874 68.7035L319.893 72.1562C323.058 70.3052 325.614 67.8425 327.535 64.7809L324.147 62.655ZM317.898 68.6894C315.276 70.1734 311.899 71.2601 307.7 71.8898L308.294 75.8455C312.826 75.1656 316.706 73.9604 319.869 72.1704L317.898 68.6894ZM307.7 75.8455C311.902 76.4758 315.105 77.558 317.414 79.0015L319.534 75.6095C316.605 73.7789 312.823 72.5692 308.294 71.8898L307.7 75.8455ZM317.414 79.0015C319.751 80.4623 321.525 82.3388 322.773 84.6425L326.29 82.7374C324.7 79.8026 322.435 77.4227 319.534 75.6095L317.414 79.0015ZM322.773 84.6425C324.049 86.9985 324.916 89.857 325.329 93.2618L329.3 92.7805C328.839 88.9823 327.851 85.62 326.29 82.7374L322.773 84.6425ZM325.333 93.2914C325.809 96.7838 326.051 100.784 326.051 105.299H330.051C330.051 100.647 329.802 96.4616 329.296 92.7509L325.333 93.2914ZM326.051 105.299V128.873H330.051V105.299H326.051ZM199.706 68.0098H272.964V64.0098H199.706V68.0098ZM272.964 68.0098C279.967 68.0098 285.866 67.9005 290.654 67.6803L290.471 63.6845C285.764 63.9009 279.931 64.0098 272.964 64.0098V68.0098ZM290.676 67.6792C295.533 67.4032 299.598 66.9312 302.843 66.248L302.019 62.3338C299.043 62.9603 295.196 63.4159 290.449 63.6856L290.676 67.6792ZM302.843 66.248C306.093 65.5638 308.79 64.5596 310.792 63.139L308.477 59.8769C307.095 60.8572 304.99 61.7084 302.019 62.3338L302.843 66.248ZM310.792 63.139C312.808 61.7082 314.278 59.8082 315.181 57.4854L311.453 56.0356C310.829 57.6417 309.844 58.9067 308.477 59.8769L310.792 63.139ZM315.164 57.5297C316.095 55.2942 316.591 52.7026 316.707 49.8011L312.711 49.6412C312.608 52.1966 312.177 54.2979 311.471 55.9913L315.164 57.5297ZM316.705 49.8386C316.872 47.0053 316.954 43.6628 316.954 39.817H312.954C312.954 43.6108 312.873 46.8711 312.712 49.6037L316.705 49.8386ZM316.954 39.817C316.954 36.2423 316.872 33.1417 316.705 30.5221L312.713 30.7769C312.873 33.2868 312.954 36.2979 312.954 39.817H316.954ZM316.707 30.5645C316.59 27.8182 316.09 25.3854 315.128 23.3343L311.506 25.0321C312.182 26.4734 312.609 28.3515 312.711 30.7346L316.707 30.5645ZM315.15 23.3816C314.215 21.2448 312.704 19.5447 310.679 18.3035L308.589 21.7139C309.947 22.5464 310.892 23.6292 311.485 24.9848L315.15 23.3816ZM310.679 18.3035C308.684 17.0807 306.005 16.2315 302.777 15.6651L302.085 19.6049C305.077 20.1298 307.201 20.8631 308.589 21.7139L310.679 18.3035ZM302.81 15.6712C299.559 15.0439 295.489 14.6559 290.631 14.4902L290.494 18.4879C295.239 18.6497 299.082 19.0256 302.052 19.5988L302.81 15.6712ZM290.631 14.4902C285.853 14.3255 279.962 14.2435 272.964 14.2435V18.2435C279.935 18.2435 285.777 18.3252 290.493 18.4879L290.631 14.4902ZM272.964 14.2435H199.706V18.2435H272.964V14.2435ZM197.706 16.2435V66.0098H201.706V16.2435H197.706ZM356.863 128.873H354.863V130.873H356.863V128.873ZM356.863 3.1471V1.1471H354.863V3.1471H356.863ZM482.588 3.1471H484.588V1.1471H482.588V3.1471ZM482.588 16.2435V18.2435H484.588V16.2435H482.588ZM372.579 16.2435V14.2435H370.579V16.2435H372.579ZM372.579 58.152H370.579V60.152H372.579V58.152ZM477.35 58.152H479.35V56.152H477.35V58.152ZM477.35 71.2484V73.2484H479.35V71.2484H477.35ZM372.579 71.2484V69.2484H370.579V71.2484H372.579ZM372.579 115.776H370.579V117.776H372.579V115.776ZM482.588 115.776H484.588V113.776H482.588V115.776ZM482.588 128.873V130.873H484.588V128.873H482.588ZM358.863 128.873V3.1471H354.863V128.873H358.863ZM356.863 5.1471H482.588V1.1471H356.863V5.1471ZM480.588 3.1471V16.2435H484.588V3.1471H480.588ZM482.588 14.2435H372.579V18.2435H482.588V14.2435ZM370.579 16.2435V58.152H374.579V16.2435H370.579ZM372.579 60.152H477.35V56.152H372.579V60.152ZM475.35 58.152V71.2484H479.35V58.152H475.35ZM477.35 69.2484H372.579V73.2484H477.35V69.2484ZM370.579 71.2484V115.776H374.579V71.2484H370.579ZM372.579 117.776H482.588V113.776H372.579V117.776ZM480.588 115.776V128.873H484.588V115.776H480.588ZM482.588 126.873H356.863V130.873H482.588V126.873ZM503.543 128.873H501.543V130.873H503.543V128.873ZM503.543 3.1471V1.1471H501.543V3.1471H503.543ZM629.268 3.1471H631.268V1.1471H629.268V3.1471ZM629.268 16.2435V18.2435H631.268V16.2435H629.268ZM519.258 16.2435V14.2435H517.258V16.2435H519.258ZM519.258 58.152H517.258V60.152H519.258V58.152ZM624.03 58.152H626.03V56.152H624.03V58.152ZM624.03 71.2484V73.2484H626.03V71.2484H624.03ZM519.258 71.2484V69.2484H517.258V71.2484H519.258ZM519.258 115.776H517.258V117.776H519.258V115.776ZM629.268 115.776H631.268V113.776H629.268V115.776ZM629.268 128.873V130.873H631.268V128.873H629.268ZM505.543 128.873V3.1471H501.543V128.873H505.543ZM503.543 5.1471H629.268V1.1471H503.543V5.1471ZM627.268 3.1471V16.2435H631.268V3.1471H627.268ZM629.268 14.2435H519.258V18.2435H629.268V14.2435ZM517.258 16.2435V58.152H521.258V16.2435H517.258ZM519.258 60.152H624.03V56.152H519.258V60.152ZM622.03 58.152V71.2484H626.03V58.152H622.03ZM624.03 69.2484H519.258V73.2484H624.03V69.2484ZM517.258 71.2484V115.776H521.258V71.2484H517.258ZM519.258 117.776H629.268V113.776H519.258V117.776ZM627.268 115.776V128.873H631.268V115.776H627.268ZM629.268 126.873H503.543V130.873H629.268V126.873ZM665.938 128.873V130.873H667.938V128.873H665.938ZM650.222 128.873H648.222V130.873H650.222V128.873ZM650.222 3.1471V1.1471H648.222V3.1471H650.222ZM677.807 3.1471L679.188 1.70039L678.608 1.1471H677.807V3.1471ZM793.055 113.157L791.674 114.604L795.055 117.831V113.157H793.055ZM793.055 3.1471V1.1471H791.055V3.1471H793.055ZM808.771 3.1471H810.771V1.1471H808.771V3.1471ZM808.771 128.873V130.873H810.771V128.873H808.771ZM787.816 128.873L786.459 130.341L787.034 130.873H787.816V128.873ZM665.938 16.2435L667.295 14.7747L663.938 11.6721V16.2435H665.938ZM665.938 126.873H650.222V130.873H665.938V126.873ZM652.222 128.873V3.1471H648.222V128.873H652.222ZM650.222 5.1471H677.807V1.1471H650.222V5.1471ZM676.426 4.59381L791.674 114.604L794.436 111.71L679.188 1.70039L676.426 4.59381ZM795.055 113.157V3.1471H791.055V113.157H795.055ZM793.055 5.1471H808.771V1.1471H793.055V5.1471ZM806.771 3.1471V128.873H810.771V3.1471H806.771ZM808.771 126.873H787.816V130.873H808.771V126.873ZM789.174 127.404L667.295 14.7747L664.581 17.7124L786.459 130.341L789.174 127.404ZM663.938 16.2435V128.873H667.938V16.2435H663.938ZM971.166 42.4363H969.166V44.4363H971.166V42.4363ZM949.066 14.4427L948.861 16.4322L948.863 16.4324L949.066 14.4427ZM874.907 14.279L875.068 16.2726L875.078 16.2718L875.089 16.2708L874.907 14.279ZM850.925 45.7923L852.924 45.8311L852.924 45.8307L850.925 45.7923ZM850.925 86.3093L848.925 86.3477L848.925 86.3576L848.926 86.3675L850.925 86.3093ZM855.918 109.883L854.277 111.027L854.286 111.04L854.295 111.052L855.918 109.883ZM874.907 117.822L874.724 119.814L874.737 119.815L874.749 119.816L874.907 117.822ZM968.383 106.772L966.57 105.929L966.565 105.938L966.561 105.948L968.383 106.772ZM970.593 98.4234L972.579 98.6591L972.58 98.6552L970.593 98.4234ZM971.166 86.9641V84.9641H969.166V86.9641H971.166ZM986.882 86.9641H988.882V84.9641H986.882V86.9641ZM985.899 101.206L987.876 101.514L987.876 101.511L985.899 101.206ZM982.38 112.502L980.597 111.596L980.591 111.608L982.38 112.502ZM965.191 126.99L965.867 128.872L965.877 128.869L965.888 128.865L965.191 126.99ZM949.966 130.346L949.727 128.36L949.718 128.361L949.709 128.362L949.966 130.346ZM868.277 129.691L868.635 127.723L868.622 127.721L868.277 129.691ZM852.071 124.453L851.088 126.194L851.096 126.199L851.105 126.204L852.071 124.453ZM842.166 115.449L840.479 116.522L840.485 116.532L840.491 116.541L842.166 115.449ZM837.092 102.762L835.136 103.179L835.138 103.19L835.14 103.2L837.092 102.762ZM837.092 29.2581L835.14 28.8196L835.138 28.83L835.136 28.8405L837.092 29.2581ZM842.166 16.5709L840.491 15.4792L840.485 15.4881L840.479 15.4972L842.166 16.5709ZM852.071 7.64899L853.036 9.40047L853.045 9.39575L853.053 9.39095L852.071 7.64899ZM868.277 2.32858L868.622 4.29868L868.635 4.29632L868.277 2.32858ZM949.966 1.67376L949.709 3.65716L949.718 3.65833L949.727 3.65942L949.966 1.67376ZM965.191 5.02971L964.515 6.9121L964.526 6.91595L964.537 6.91968L965.191 5.02971ZM982.38 18.7809L980.61 19.7124L980.616 19.7245L980.623 19.7365L982.38 18.7809ZM986.882 42.4363V44.4363H988.882V42.4363H986.882ZM973.166 42.4363C973.166 35.7768 972.449 30.3244 970.913 26.188L967.163 27.5807C968.464 31.0838 969.166 35.9994 969.166 42.4363H973.166ZM970.913 26.188C969.347 21.9731 966.718 18.7074 963.028 16.493L960.97 19.923C963.827 21.6374 965.891 24.156 967.163 27.5807L970.913 26.188ZM963.028 16.493C959.421 14.3289 954.797 13.0172 949.269 12.4531L948.863 16.4324C954.03 16.9596 958.028 18.1581 960.97 19.923L963.028 16.493ZM949.271 12.4533C943.886 11.8981 937.237 11.6242 929.339 11.6242V15.6242C937.158 15.6242 943.66 15.896 948.861 16.4322L949.271 12.4533ZM929.339 11.6242H892.588V15.6242H929.339V11.6242ZM892.588 11.6242C885.567 11.6242 879.609 11.8434 874.726 12.2873L875.089 16.2708C879.81 15.8416 885.639 15.6242 892.588 15.6242V11.6242ZM874.747 12.2855C869.875 12.6775 865.731 13.5246 862.372 14.8799L863.869 18.5893C866.731 17.4345 870.445 16.6446 875.068 16.2726L874.747 12.2855ZM862.372 14.8799C858.969 16.2533 856.241 18.2683 854.295 20.9673L857.54 23.3065C858.977 21.3126 861.052 19.7261 863.869 18.5893L862.372 14.8799ZM854.295 20.9673C852.386 23.616 851.073 27.0217 850.272 31.0812L854.197 31.855C854.924 28.1657 856.066 25.3507 857.54 23.3065L854.295 20.9673ZM850.272 31.0812C849.478 35.1081 849.036 40.0077 848.925 45.7538L852.924 45.8307C853.032 40.2266 853.463 35.5768 854.197 31.855L850.272 31.0812ZM848.925 45.7534C848.816 51.3909 848.761 58.1437 848.761 66.0098H852.761C852.761 58.1603 852.815 51.4347 852.924 45.8311L848.925 45.7534ZM848.761 66.0098C848.761 73.876 848.816 80.656 848.925 86.3477L852.924 86.2708C852.815 80.6123 852.761 73.8593 852.761 66.0098H848.761ZM848.926 86.3675C849.091 92.0562 849.562 96.921 850.354 100.939L854.278 100.165C853.543 96.4334 853.086 91.8034 852.924 86.251L848.926 86.3675ZM850.354 100.939C851.152 104.988 852.434 108.384 854.277 111.027L857.558 108.738C856.128 106.688 855.008 103.864 854.278 100.165L850.354 100.939ZM854.295 111.052C856.241 113.751 858.969 115.766 862.372 117.14L863.869 113.43C861.052 112.294 858.977 110.707 857.54 108.713L854.295 111.052ZM862.372 117.14C865.722 118.491 869.857 119.367 874.724 119.814L875.091 115.831C870.463 115.405 866.74 114.589 863.869 113.43L862.372 117.14ZM874.749 119.816C879.621 120.204 885.571 120.395 892.588 120.395V116.395C885.635 116.395 879.798 116.205 875.066 115.829L874.749 119.816ZM892.588 120.395H929.339V116.395H892.588V120.395ZM929.339 120.395C935.483 120.395 940.801 120.231 945.285 119.899L944.989 115.91C940.633 116.232 935.419 116.395 929.339 116.395V120.395ZM945.285 119.899C949.792 119.565 953.697 118.949 956.973 118.029L955.892 114.178C952.947 115.005 949.322 115.589 944.989 115.91L945.285 119.899ZM956.973 118.029C960.263 117.106 963.037 115.804 965.212 114.064L962.714 110.94C961.069 112.256 958.823 113.355 955.892 114.178L956.973 118.029ZM965.212 114.064C967.376 112.333 969.042 110.168 970.205 107.597L966.561 105.948C965.65 107.961 964.37 109.615 962.714 110.94L965.212 114.064ZM970.196 107.616C971.397 105.036 972.178 102.038 972.579 98.6591L968.607 98.1878C968.244 101.248 967.552 103.816 966.57 105.929L970.196 107.616ZM972.58 98.6552C972.973 95.2841 973.166 91.3838 973.166 86.9641H969.166C969.166 91.2753 968.977 95.0145 968.607 98.1917L972.58 98.6552ZM971.166 88.9641H986.882V84.9641H971.166V88.9641ZM984.882 86.9641C984.882 92.1218 984.559 96.7654 983.923 100.902L987.876 101.511C988.549 97.1348 988.882 92.2835 988.882 86.9641H984.882ZM983.923 100.898C983.297 104.92 982.181 108.479 980.597 111.596L984.163 113.408C985.962 109.867 987.193 105.896 987.876 101.514L983.923 100.898ZM980.591 111.608C979.073 114.644 977.027 117.271 974.443 119.5L977.056 122.529C980.039 119.956 982.413 116.908 984.169 113.396L980.591 111.608ZM974.443 119.5C971.877 121.714 968.578 123.597 964.494 125.115L965.888 128.865C970.316 127.218 974.056 125.117 977.056 122.529L974.443 119.5ZM964.515 125.108C960.436 126.572 955.515 127.664 949.727 128.36L950.205 132.332C956.204 131.609 961.433 130.464 965.867 128.872L964.515 125.108ZM949.709 128.362C943.923 129.113 937.137 129.492 929.339 129.492V133.492C937.258 133.492 944.223 133.107 950.223 132.329L949.709 128.362ZM929.339 129.492H892.588V133.492H929.339V129.492ZM892.588 129.492C883.057 129.492 875.082 128.895 868.635 127.723L867.92 131.659C874.679 132.888 882.91 133.492 892.588 133.492V129.492ZM868.622 127.721C862.217 126.6 857.043 124.91 853.036 122.701L851.105 126.204C855.611 128.688 861.241 130.49 867.933 131.661L868.622 127.721ZM853.053 122.711C849.038 120.446 845.99 117.654 843.842 114.357L840.491 116.541C843.035 120.446 846.59 123.657 851.088 126.194L853.053 122.711ZM843.854 114.375C841.705 110.998 840.092 106.991 839.043 102.323L835.14 103.2C836.274 108.245 838.045 112.697 840.479 116.522L843.854 114.375ZM839.048 102.344C838.041 97.6309 837.451 92.2718 837.29 86.2557L833.292 86.3628C833.458 92.57 834.068 98.1792 835.136 103.179L839.048 102.344ZM837.29 86.2557C837.127 80.1652 837.045 73.4169 837.045 66.0098H833.045C833.045 73.4454 833.127 80.23 833.292 86.3628L837.29 86.2557ZM837.045 66.0098C837.045 58.6028 837.127 51.8545 837.29 45.764L833.292 45.6569C833.127 51.7896 833.045 58.5743 833.045 66.0098H837.045ZM837.29 45.764C837.451 39.7479 838.041 34.3888 839.048 29.6756L835.136 28.8405C834.068 33.8405 833.458 39.4496 833.292 45.6569L837.29 45.764ZM839.043 29.6966C840.092 25.0287 841.705 21.0219 843.854 17.6447L840.479 15.4972C838.045 19.323 836.274 23.7743 835.14 28.8196L839.043 29.6966ZM843.842 17.6627C845.987 14.3702 849.029 11.6095 853.036 9.40047L851.105 5.89751C846.599 8.38134 843.039 11.5686 840.491 15.4792L843.842 17.6627ZM853.053 9.39095C857.054 7.1339 862.223 5.41853 868.622 4.29864L867.933 0.358516C861.236 1.5305 855.6 3.36207 851.088 5.90703L853.053 9.39095ZM868.635 4.29632C875.082 3.12426 883.057 2.52782 892.588 2.52782V-1.47218C882.91 -1.47218 874.679 -0.868108 867.92 0.360837L868.635 4.29632ZM892.588 2.52782H929.339V-1.47218H892.588V2.52782ZM929.339 2.52782C937.137 2.52782 943.923 2.90712 949.709 3.65716L950.223 -0.309648C944.223 -1.08752 937.258 -1.47218 929.339 -1.47218V2.52782ZM949.727 3.65942C955.515 4.3561 960.436 5.44779 964.515 6.9121L965.867 3.14732C961.433 1.55581 956.204 0.410188 950.205 -0.311909L949.727 3.65942ZM964.537 6.91968C968.622 8.33389 971.918 10.1131 974.478 12.2214L977.021 9.13367C974.015 6.65826 970.272 4.67222 965.845 3.13974L964.537 6.91968ZM974.478 12.2214C977.062 14.3487 979.1 16.8434 980.61 19.7124L984.15 17.8494C982.386 14.4977 980.004 11.5901 977.021 9.13367L974.478 12.2214ZM980.623 19.7365C982.196 22.6286 983.304 25.9321 983.927 29.6687L987.872 29.0111C987.185 24.8899 985.947 21.154 984.137 17.8254L980.623 19.7365ZM983.927 29.6687C984.56 33.4695 984.882 37.7229 984.882 42.4363H988.882C988.882 37.5457 988.548 33.0681 987.872 29.0111L983.927 29.6687ZM986.882 40.4363H971.166V44.4363H986.882V40.4363ZM1136.26 100.06L1138.02 99.1028L1137.45 98.0605H1136.26V100.06ZM1036.73 100.06V98.0605H1035.54L1034.97 99.1028L1036.73 100.06ZM1021.01 128.873V130.873H1022.2L1022.77 129.83L1021.01 128.873ZM1002.68 128.873L1000.95 127.865L999.197 130.873H1002.68V128.873ZM1076.02 3.1471V1.1471H1074.87L1074.29 2.13936L1076.02 3.1471ZM1096.97 3.1471L1098.7 2.13936L1098.12 1.1471H1096.97V3.1471ZM1170.31 128.873V130.873H1173.8L1172.04 127.865L1170.31 128.873ZM1151.98 128.873L1150.22 129.83L1150.79 130.873H1151.98V128.873ZM1128.4 86.9641V88.9641H1131.85L1130.14 85.9718L1128.4 86.9641ZM1086.5 13.6242L1088.23 12.6319L1086.5 9.59309L1084.76 12.6319L1086.5 13.6242ZM1044.59 86.9641L1042.85 85.9718L1041.14 88.9641H1044.59V86.9641ZM1136.26 98.0605H1036.73V102.06H1136.26V98.0605ZM1034.97 99.1028L1019.26 127.915L1022.77 129.83L1038.49 101.018L1034.97 99.1028ZM1021.01 126.873H1002.68V130.873H1021.01V126.873ZM1004.41 129.88L1077.75 4.15484L1074.29 2.13936L1000.95 127.865L1004.41 129.88ZM1076.02 5.1471H1096.97V1.1471H1076.02V5.1471ZM1095.25 4.15484L1168.59 129.88L1172.04 127.865L1098.7 2.13936L1095.25 4.15484ZM1170.31 126.873H1151.98V130.873H1170.31V126.873ZM1153.73 127.915L1138.02 99.1028L1134.51 101.018L1150.22 129.83L1153.73 127.915ZM1130.14 85.9718L1088.23 12.6319L1084.76 14.6165L1126.67 87.9564L1130.14 85.9718ZM1084.76 12.6319L1042.85 85.9718L1046.32 87.9564L1088.23 14.6165L1084.76 12.6319ZM1044.59 88.9641H1128.4V84.9641H1044.59V88.9641ZM1335.33 128.873V130.873H1337.33V128.873H1335.33ZM1319.61 128.873H1317.61V130.873H1319.61V128.873ZM1319.37 95.4767L1317.37 95.5551L1317.37 95.5758L1317.37 95.5965L1319.37 95.4767ZM1317.98 88.3556L1316.11 89.0805L1316.12 89.1027L1316.13 89.1248L1317.98 88.3556ZM1295.22 79.5155L1295.11 81.5122L1295.12 81.5129L1295.13 81.5134L1295.22 79.5155ZM1206.98 79.1062V77.1062H1204.98V79.1062H1206.98ZM1206.98 128.873V130.873H1208.98V128.873H1206.98ZM1191.27 128.873H1189.27V130.873H1191.27V128.873ZM1191.27 3.1471V1.1471H1189.27V3.1471H1191.27ZM1304.47 4.21118L1304.25 6.19955L1304.26 6.20053L1304.27 6.20142L1304.47 4.21118ZM1320.76 7.23973L1320.15 9.14431L1320.15 9.14653L1320.76 7.23973ZM1330.66 12.3146L1329.34 13.8153L1329.35 13.823L1329.36 13.8306L1330.66 12.3146ZM1335.74 19.4358L1333.87 20.1462L1333.87 20.1624L1333.88 20.1785L1335.74 19.4358ZM1337.62 28.6032L1335.62 28.6999L1335.62 28.716L1335.62 28.732L1337.62 28.6032ZM1336.8 53.6501L1334.84 53.2734L1334.83 53.2841L1334.83 53.2947L1336.8 53.6501ZM1326.16 70.4299L1327.15 72.1704L1327.16 72.1634L1327.17 72.1562L1326.16 70.4299ZM1315.27 73.8677L1314.98 71.8898V75.8455L1315.27 73.8677ZM1334.59 93.0212L1332.61 93.2618L1332.61 93.2766L1332.61 93.2914L1334.59 93.0212ZM1206.98 66.0098H1204.98V68.0098H1206.98V66.0098ZM1297.84 65.6824L1297.93 67.6803L1297.94 67.6798L1297.95 67.6792L1297.84 65.6824ZM1320.59 56.7605L1318.75 55.9913L1318.74 56.0133L1318.73 56.0356L1320.59 56.7605ZM1321.99 49.7212L1319.99 49.6037L1319.99 49.6225L1319.99 49.6412L1321.99 49.7212ZM1321.99 30.6495L1319.99 30.7346L1319.99 30.7558L1319.99 30.7769L1321.99 30.6495ZM1320.59 24.1832L1318.76 24.9848L1318.77 25.0086L1318.78 25.0321L1320.59 24.1832ZM1309.71 17.635L1309.33 19.5988L1309.35 19.602L1309.36 19.6049L1309.71 17.635ZM1297.84 16.4891L1297.77 18.4879L1297.77 18.4879L1297.84 16.4891ZM1206.98 16.2435V14.2435H1204.98V16.2435H1206.98ZM1335.33 126.873H1319.61V130.873H1335.33V126.873ZM1321.61 128.873V105.299H1317.61V128.873H1321.61ZM1321.61 105.299C1321.61 101.454 1321.53 98.1374 1321.36 95.3569L1317.37 95.5965C1317.53 98.2729 1317.61 101.505 1317.61 105.299H1321.61ZM1321.37 95.3984C1321.25 92.4472 1320.75 89.8263 1319.82 87.5863L1316.13 89.1248C1316.83 90.8138 1317.27 92.9403 1317.37 95.5551L1321.37 95.3984ZM1319.84 87.6307C1318.94 85.3078 1317.47 83.4079 1315.45 81.9771L1313.13 85.2391C1314.5 86.2094 1315.49 87.4744 1316.11 89.0805L1319.84 87.6307ZM1315.45 81.9771C1313.45 80.5564 1310.75 79.5523 1307.5 78.868L1306.68 82.7822C1309.65 83.4076 1311.75 84.2588 1313.13 85.2391L1315.45 81.9771ZM1307.5 78.868C1304.25 78.1827 1300.17 77.7385 1295.31 77.5176L1295.13 81.5134C1299.87 81.729 1303.71 82.1579 1306.68 82.7822L1307.5 78.868ZM1295.33 77.5188C1290.54 77.243 1284.63 77.1062 1277.62 77.1062V81.1062C1284.58 81.1062 1290.41 81.2423 1295.11 81.5122L1295.33 77.5188ZM1277.62 77.1062H1206.98V81.1062H1277.62V77.1062ZM1204.98 79.1062V128.873H1208.98V79.1062H1204.98ZM1206.98 126.873H1191.27V130.873H1206.98V126.873ZM1193.27 128.873V3.1471H1189.27V128.873H1193.27ZM1191.27 5.1471H1280.24V1.1471H1191.27V5.1471ZM1280.24 5.1471C1289.8 5.1471 1297.8 5.50054 1304.25 6.19955L1304.68 2.22282C1298.04 1.50305 1289.89 1.1471 1280.24 1.1471V5.1471ZM1304.27 6.20142C1310.8 6.84833 1316.07 7.8384 1320.15 9.14429L1321.37 5.33516C1316.93 3.91264 1311.35 2.88368 1304.67 2.22095L1304.27 6.20142ZM1320.15 9.14653C1324.32 10.4636 1327.33 12.0465 1329.34 13.8153L1331.98 10.8139C1329.41 8.54457 1325.82 6.74425 1321.36 5.33293L1320.15 9.14653ZM1329.36 13.8306C1331.47 15.6459 1332.96 17.7481 1333.87 20.1462L1337.61 18.7253C1336.44 15.6666 1334.55 13.0213 1331.97 10.7986L1329.36 13.8306ZM1333.88 20.1785C1334.88 22.6721 1335.47 25.5051 1335.62 28.6999L1339.62 28.5066C1339.44 24.9349 1338.78 21.6562 1337.59 18.693L1333.88 20.1785ZM1335.62 28.732C1335.84 32.0647 1335.95 35.7589 1335.95 39.817H1339.95C1339.95 35.6899 1339.84 31.9082 1339.62 28.4745L1335.62 28.732ZM1335.95 39.817C1335.95 44.9636 1335.57 49.4438 1334.84 53.2734L1338.77 54.0268C1339.56 49.8894 1339.95 45.1476 1339.95 39.817H1335.95ZM1334.83 53.2947C1334.16 57.0251 1333.01 60.1293 1331.42 62.655L1334.81 64.7809C1336.72 61.7407 1338.02 58.133 1338.77 54.0055L1334.83 53.2947ZM1331.42 62.655C1329.85 65.1593 1327.77 67.1713 1325.15 68.7035L1327.17 72.1562C1330.33 70.3052 1332.89 67.8425 1334.81 64.7809L1331.42 62.655ZM1325.18 68.6894C1322.55 70.1734 1319.18 71.2601 1314.98 71.8898L1315.57 75.8455C1320.1 75.1656 1323.98 73.9604 1327.15 72.1704L1325.18 68.6894ZM1314.98 75.8455C1319.18 76.4758 1322.38 77.558 1324.69 79.0015L1326.81 75.6095C1323.88 73.7789 1320.1 72.5692 1315.57 71.8898L1314.98 75.8455ZM1324.69 79.0015C1327.03 80.4623 1328.8 82.3388 1330.05 84.6425L1333.57 82.7374C1331.98 79.8026 1329.71 77.4227 1326.81 75.6095L1324.69 79.0015ZM1330.05 84.6425C1331.33 86.9985 1332.19 89.857 1332.61 93.2618L1336.58 92.7805C1336.12 88.9823 1335.13 85.62 1333.57 82.7374L1330.05 84.6425ZM1332.61 93.2914C1333.09 96.7838 1333.33 100.784 1333.33 105.299H1337.33C1337.33 100.647 1337.08 96.4616 1336.57 92.7509L1332.61 93.2914ZM1333.33 105.299V128.873H1337.33V105.299H1333.33ZM1206.98 68.0098H1280.24V64.0098H1206.98V68.0098ZM1280.24 68.0098C1287.24 68.0098 1293.14 67.9005 1297.93 67.6803L1297.75 63.6845C1293.04 63.9009 1287.21 64.0098 1280.24 64.0098V68.0098ZM1297.95 67.6792C1302.81 67.4032 1306.88 66.9312 1310.12 66.248L1309.3 62.3338C1306.32 62.9603 1302.47 63.4159 1297.73 63.6856L1297.95 67.6792ZM1310.12 66.248C1313.37 65.5638 1316.07 64.5596 1318.07 63.139L1315.75 59.8769C1314.37 60.8572 1312.27 61.7084 1309.3 62.3338L1310.12 66.248ZM1318.07 63.139C1320.08 61.7082 1321.56 59.8082 1322.46 57.4854L1318.73 56.0356C1318.11 57.6417 1317.12 58.9067 1315.75 59.8769L1318.07 63.139ZM1322.44 57.5297C1323.37 55.2942 1323.87 52.7026 1323.98 49.8011L1319.99 49.6412C1319.89 52.1966 1319.45 54.2979 1318.75 55.9913L1322.44 57.5297ZM1323.98 49.8386C1324.15 47.0053 1324.23 43.6628 1324.23 39.817H1320.23C1320.23 43.6108 1320.15 46.8711 1319.99 49.6037L1323.98 49.8386ZM1324.23 39.817C1324.23 36.2423 1324.15 33.1417 1323.98 30.5221L1319.99 30.7769C1320.15 33.2868 1320.23 36.2979 1320.23 39.817H1324.23ZM1323.98 30.5645C1323.87 27.8182 1323.37 25.3854 1322.41 23.3343L1318.78 25.0321C1319.46 26.4734 1319.89 28.3515 1319.99 30.7346L1323.98 30.5645ZM1322.43 23.3816C1321.49 21.2448 1319.98 19.5447 1317.96 18.3035L1315.87 21.7139C1317.22 22.5464 1318.17 23.6292 1318.76 24.9848L1322.43 23.3816ZM1317.96 18.3035C1315.96 17.0807 1313.28 16.2315 1310.05 15.6651L1309.36 19.6049C1312.35 20.1298 1314.48 20.8631 1315.87 21.7139L1317.96 18.3035ZM1310.09 15.6712C1306.84 15.0439 1302.77 14.6559 1297.91 14.4902L1297.77 18.4879C1302.52 18.6497 1306.36 19.0256 1309.33 19.5988L1310.09 15.6712ZM1297.91 14.4902C1293.13 14.3255 1287.24 14.2435 1280.24 14.2435V18.2435C1287.21 18.2435 1293.05 18.3252 1297.77 18.4879L1297.91 14.4902ZM1280.24 14.2435H1206.98V18.2435H1280.24V14.2435ZM1204.98 16.2435V66.0098H1208.98V16.2435H1204.98ZM1500.42 42.4363H1498.42V44.4363H1500.42V42.4363ZM1398.76 14.279L1398.92 16.2726L1398.93 16.2718L1398.94 16.2708L1398.76 14.279ZM1374.78 45.7923L1376.78 45.8311L1376.78 45.8307L1374.78 45.7923ZM1374.78 86.3093L1372.78 86.3477L1372.78 86.3576L1372.78 86.3675L1374.78 86.3093ZM1379.77 109.883L1378.13 111.027L1378.14 111.04L1378.15 111.052L1379.77 109.883ZM1398.76 117.822L1398.58 119.814L1398.59 119.815L1398.61 119.816L1398.76 117.822ZM1497.64 106.772L1495.83 105.929L1495.82 105.938L1495.82 105.948L1497.64 106.772ZM1499.85 98.4234L1501.84 98.6591L1501.84 98.6552L1499.85 98.4234ZM1500.42 79.1062H1502.42V77.1062H1500.42V79.1062ZM1437.4 79.1062H1435.4V81.1062H1437.4V79.1062ZM1437.4 66.0098V64.0098H1435.4V66.0098H1437.4ZM1516.14 66.0098H1518.14V64.0098H1516.14V66.0098ZM1515.16 101.206L1517.13 101.514L1517.13 101.511L1515.16 101.206ZM1511.64 112.502L1509.86 111.596L1509.85 111.608L1511.64 112.502ZM1494.45 126.99L1495.12 128.872L1495.14 128.869L1495.15 128.865L1494.45 126.99ZM1479.22 130.346L1478.99 128.36L1478.98 128.361L1478.97 128.362L1479.22 130.346ZM1392.13 129.691L1392.49 127.723L1392.48 127.721L1392.13 129.691ZM1375.93 124.453L1374.94 126.194L1374.95 126.199L1374.96 126.204L1375.93 124.453ZM1366.02 115.449L1364.34 116.522L1364.34 116.532L1364.35 116.541L1366.02 115.449ZM1360.95 102.762L1358.99 103.179L1358.99 103.19L1359 103.2L1360.95 102.762ZM1360.95 29.2581L1359 28.8196L1358.99 28.83L1358.99 28.8405L1360.95 29.2581ZM1366.02 16.5709L1364.35 15.4792L1364.34 15.4881L1364.34 15.4972L1366.02 16.5709ZM1375.93 7.64899L1376.89 9.40047L1376.9 9.39575L1376.91 9.39095L1375.93 7.64899ZM1392.13 2.32858L1392.48 4.29868L1392.49 4.29632L1392.13 2.32858ZM1479.14 1.67376L1478.89 3.65716L1478.89 3.65833L1478.9 3.65942L1479.14 1.67376ZM1494.37 5.02971L1493.69 6.9121L1493.7 6.91595L1493.71 6.91968L1494.37 5.02971ZM1504.93 10.6775L1503.65 12.2214L1503.66 12.2274L1503.67 12.2334L1504.93 10.6775ZM1511.64 18.7809L1509.87 19.7124L1509.87 19.7245L1509.88 19.7365L1511.64 18.7809ZM1516.14 42.4363V44.4363H1518.14V42.4363H1516.14ZM1502.42 42.4363C1502.42 35.7768 1501.71 30.3244 1500.17 26.188L1496.42 27.5807C1497.72 31.0838 1498.42 35.9994 1498.42 42.4363H1502.42ZM1500.17 26.188C1498.61 21.9731 1495.98 18.7074 1492.29 16.493L1490.23 19.923C1493.09 21.6374 1495.15 24.156 1496.42 27.5807L1500.17 26.188ZM1492.29 16.493C1488.68 14.3289 1484.06 13.0172 1478.53 12.4531L1478.12 16.4324C1483.29 16.9596 1487.29 18.1581 1490.23 19.923L1492.29 16.493ZM1478.53 12.4531C1473.09 11.8982 1466.41 11.6242 1458.52 11.6242V15.6242C1466.33 15.6242 1472.86 15.896 1478.12 16.4324L1478.53 12.4531ZM1458.52 11.6242H1416.44V15.6242H1458.52V11.6242ZM1416.44 11.6242C1409.42 11.6242 1403.46 11.8434 1398.58 12.2873L1398.94 16.2708C1403.67 15.8416 1409.5 15.6242 1416.44 15.6242V11.6242ZM1398.6 12.2855C1393.73 12.6775 1389.59 13.5246 1386.23 14.8799L1387.73 18.5893C1390.59 17.4345 1394.3 16.6446 1398.92 16.2726L1398.6 12.2855ZM1386.23 14.8799C1382.82 16.2533 1380.1 18.2683 1378.15 20.9673L1381.4 23.3065C1382.83 21.3126 1384.91 19.7261 1387.73 18.5893L1386.23 14.8799ZM1378.15 20.9673C1376.24 23.616 1374.93 27.0217 1374.13 31.0812L1378.05 31.855C1378.78 28.1657 1379.92 25.3507 1381.4 23.3065L1378.15 20.9673ZM1374.13 31.0812C1373.33 35.1081 1372.89 40.0077 1372.78 45.7538L1376.78 45.8307C1376.89 40.2266 1377.32 35.5768 1378.05 31.855L1374.13 31.0812ZM1372.78 45.7534C1372.67 51.3909 1372.62 58.1437 1372.62 66.0098H1376.62C1376.62 58.1603 1376.67 51.4347 1376.78 45.8311L1372.78 45.7534ZM1372.62 66.0098C1372.62 73.876 1372.67 80.656 1372.78 86.3477L1376.78 86.2708C1376.67 80.6123 1376.62 73.8593 1376.62 66.0098H1372.62ZM1372.78 86.3675C1372.95 92.0562 1373.42 96.921 1374.21 100.939L1378.13 100.165C1377.4 96.4334 1376.94 91.8034 1376.78 86.251L1372.78 86.3675ZM1374.21 100.939C1375.01 104.988 1376.29 108.384 1378.13 111.027L1381.41 108.738C1379.98 106.688 1378.86 103.864 1378.13 100.165L1374.21 100.939ZM1378.15 111.052C1380.1 113.751 1382.82 115.766 1386.23 117.14L1387.73 113.43C1384.91 112.294 1382.83 110.707 1381.4 108.713L1378.15 111.052ZM1386.23 117.14C1389.58 118.491 1393.71 119.367 1398.58 119.814L1398.95 115.831C1394.32 115.405 1390.6 114.589 1387.73 113.43L1386.23 117.14ZM1398.61 119.816C1403.48 120.204 1409.43 120.395 1416.44 120.395V116.395C1409.49 116.395 1403.65 116.205 1398.92 115.829L1398.61 119.816ZM1416.44 120.395H1458.6V116.395H1416.44V120.395ZM1458.6 120.395C1464.74 120.395 1470.06 120.231 1474.54 119.899L1474.25 115.91C1469.89 116.232 1464.68 116.395 1458.6 116.395V120.395ZM1474.54 119.899C1479.05 119.565 1482.96 118.949 1486.23 118.029L1485.15 114.178C1482.21 115.005 1478.58 115.589 1474.25 115.91L1474.54 119.899ZM1486.23 118.029C1489.52 117.106 1492.3 115.804 1494.47 114.064L1491.97 110.94C1490.33 112.256 1488.08 113.355 1485.15 114.178L1486.23 118.029ZM1494.47 114.064C1496.63 112.333 1498.3 110.168 1499.46 107.597L1495.82 105.948C1494.91 107.961 1493.63 109.615 1491.97 110.94L1494.47 114.064ZM1499.45 107.616C1500.65 105.036 1501.44 102.038 1501.84 98.6591L1497.87 98.1878C1497.5 101.248 1496.81 103.816 1495.83 105.929L1499.45 107.616ZM1501.84 98.6552C1502.23 95.2841 1502.42 91.3838 1502.42 86.9641H1498.42C1498.42 91.2753 1498.24 95.0145 1497.86 98.1917L1501.84 98.6552ZM1502.42 86.9641V79.1062H1498.42V86.9641H1502.42ZM1500.42 77.1062H1437.4V81.1062H1500.42V77.1062ZM1439.4 79.1062V66.0098H1435.4V79.1062H1439.4ZM1437.4 68.0098H1516.14V64.0098H1437.4V68.0098ZM1514.14 66.0098V86.9641H1518.14V66.0098H1514.14ZM1514.14 86.9641C1514.14 92.1218 1513.82 96.7654 1513.18 100.902L1517.13 101.511C1517.81 97.1348 1518.14 92.2835 1518.14 86.9641H1514.14ZM1513.18 100.898C1512.55 104.92 1511.44 108.479 1509.86 111.596L1513.42 113.408C1515.22 109.867 1516.45 105.896 1517.13 101.514L1513.18 100.898ZM1509.85 111.608C1508.33 114.644 1506.29 117.271 1503.7 119.5L1506.31 122.529C1509.3 119.956 1511.67 116.908 1513.43 113.396L1509.85 111.608ZM1503.7 119.5C1501.14 121.714 1497.84 123.597 1493.75 125.115L1495.15 128.865C1499.57 127.218 1503.31 125.117 1506.31 122.529L1503.7 119.5ZM1493.77 125.108C1489.69 126.572 1484.77 127.664 1478.99 128.36L1479.46 132.332C1485.46 131.609 1490.69 130.464 1495.12 128.872L1493.77 125.108ZM1478.97 128.362C1473.18 129.113 1466.4 129.492 1458.6 129.492V133.492C1466.52 133.492 1473.48 133.107 1479.48 132.329L1478.97 128.362ZM1458.6 129.492H1416.44V133.492H1458.6V129.492ZM1416.44 129.492C1406.91 129.492 1398.94 128.895 1392.49 127.723L1391.78 131.659C1398.53 132.888 1406.77 133.492 1416.44 133.492V129.492ZM1392.48 127.721C1386.07 126.6 1380.9 124.91 1376.89 122.701L1374.96 126.204C1379.47 128.688 1385.1 130.49 1391.79 131.661L1392.48 127.721ZM1376.91 122.711C1372.89 120.446 1369.85 117.654 1367.7 114.357L1364.35 116.541C1366.89 120.446 1370.45 123.657 1374.94 126.194L1376.91 122.711ZM1367.71 114.375C1365.56 110.998 1363.95 106.991 1362.9 102.323L1359 103.2C1360.13 108.245 1361.9 112.697 1364.34 116.522L1367.71 114.375ZM1362.9 102.344C1361.9 97.6309 1361.31 92.2718 1361.15 86.2557L1357.15 86.3628C1357.31 92.57 1357.92 98.1792 1358.99 103.179L1362.9 102.344ZM1361.15 86.2557C1360.98 80.1652 1360.9 73.4169 1360.9 66.0098H1356.9C1356.9 73.4454 1356.98 80.23 1357.15 86.3628L1361.15 86.2557ZM1360.9 66.0098C1360.9 58.6028 1360.98 51.8545 1361.15 45.764L1357.15 45.6569C1356.98 51.7896 1356.9 58.5743 1356.9 66.0098H1360.9ZM1361.15 45.764C1361.31 39.7479 1361.9 34.3888 1362.9 29.6756L1358.99 28.8405C1357.92 33.8405 1357.31 39.4496 1357.15 45.6569L1361.15 45.764ZM1362.9 29.6966C1363.95 25.0287 1365.56 21.0219 1367.71 17.6447L1364.34 15.4972C1361.9 19.323 1360.13 23.7743 1359 28.8196L1362.9 29.6966ZM1367.7 17.6627C1369.84 14.3702 1372.89 11.6095 1376.89 9.40047L1374.96 5.89751C1370.46 8.38134 1366.89 11.5686 1364.35 15.4792L1367.7 17.6627ZM1376.91 9.39095C1380.91 7.1339 1386.08 5.41853 1392.48 4.29864L1391.79 0.358516C1385.09 1.5305 1379.46 3.36207 1374.94 5.90703L1376.91 9.39095ZM1392.49 4.29632C1398.94 3.12426 1406.91 2.52782 1416.44 2.52782V-1.47218C1406.77 -1.47218 1398.53 -0.868108 1391.78 0.360837L1392.49 4.29632ZM1416.44 2.52782H1458.52V-1.47218H1416.44V2.52782ZM1458.52 2.52782C1466.31 2.52782 1473.1 2.90712 1478.89 3.65716L1479.4 -0.309648C1473.4 -1.08752 1466.43 -1.47218 1458.52 -1.47218V2.52782ZM1478.9 3.65942C1484.69 4.3561 1489.61 5.44779 1493.69 6.9121L1495.04 3.14732C1490.61 1.55581 1485.38 0.410188 1479.38 -0.311909L1478.9 3.65942ZM1493.71 6.91968C1497.8 8.33389 1501.09 10.1131 1503.65 12.2214L1506.2 9.13367C1503.19 6.65826 1499.45 4.67222 1495.02 3.13974L1493.71 6.91968ZM1503.67 12.2334C1506.3 14.3608 1508.36 16.852 1509.87 19.7124L1513.41 17.8494C1511.64 14.489 1509.22 11.578 1506.18 9.12165L1503.67 12.2334ZM1509.88 19.7365C1511.45 22.6286 1512.56 25.9321 1513.19 29.6687L1517.13 29.0111C1516.44 24.8899 1515.21 21.154 1513.4 17.8254L1509.88 19.7365ZM1513.19 29.6687C1513.82 33.4695 1514.14 37.7229 1514.14 42.4363H1518.14C1518.14 37.5457 1517.81 33.0681 1517.13 29.0111L1513.19 29.6687ZM1516.14 40.4363H1500.42V44.4363H1516.14V40.4363ZM1666.26 2.32858L1665.9 4.29579L1665.91 4.2975L1665.92 4.29912L1666.26 2.32858ZM1682.55 7.64899L1681.56 9.39095L1681.57 9.39575L1681.58 9.40047L1682.55 7.64899ZM1697.36 29.2581L1695.41 29.6756L1695.41 29.6861L1695.41 29.6966L1697.36 29.2581ZM1699.24 45.7104L1697.24 45.764L1697.25 45.7729L1697.25 45.7818L1699.24 45.7104ZM1699.24 86.3093L1697.25 86.2379L1697.25 86.2468L1697.24 86.2557L1699.24 86.3093ZM1697.36 102.762L1695.41 102.323L1695.41 102.334L1695.41 102.344L1697.36 102.762ZM1682.55 124.453L1683.51 126.204L1683.52 126.199L1683.53 126.194L1682.55 124.453ZM1666.26 129.691L1665.92 127.721L1665.91 127.722L1665.9 127.724L1666.26 129.691ZM1570.41 129.691L1570.77 127.723L1570.75 127.721L1570.41 129.691ZM1554.2 124.453L1553.22 126.194L1553.23 126.199L1553.24 126.204L1554.2 124.453ZM1544.3 115.449L1542.61 116.522L1542.62 116.532L1542.62 116.541L1544.3 115.449ZM1539.22 102.762L1537.27 103.179L1537.27 103.19L1537.27 103.2L1539.22 102.762ZM1539.22 29.2581L1537.27 28.8196L1537.27 28.83L1537.27 28.8405L1539.22 29.2581ZM1544.3 16.5709L1542.62 15.4792L1542.62 15.4881L1542.61 15.4972L1544.3 16.5709ZM1554.2 7.64899L1555.17 9.40047L1555.18 9.39575L1555.18 9.39095L1554.2 7.64899ZM1570.41 2.32858L1570.75 4.29868L1570.77 4.29632L1570.41 2.32858ZM1659.55 117.822L1659.71 119.816L1659.72 119.815L1659.73 119.814L1659.55 117.822ZM1678.62 109.883L1680.24 111.052L1678.62 109.883ZM1683.61 86.3093L1681.61 86.2516L1681.61 86.261L1681.61 86.2704L1683.61 86.3093ZM1683.61 45.7923L1681.61 45.8307L1681.61 45.8406L1681.61 45.8505L1683.61 45.7923ZM1671.41 16.7346L1670.65 18.5847L1670.67 18.5893L1671.41 16.7346ZM1659.63 14.279L1659.44 16.2706L1659.46 16.2718L1659.47 16.2727L1659.63 14.279ZM1577.04 14.279L1577.2 16.2726L1577.21 16.2718L1577.22 16.2708L1577.04 14.279ZM1553.06 45.7923L1555.06 45.8311L1555.06 45.8307L1553.06 45.7923ZM1553.06 86.3093L1551.06 86.3477L1551.06 86.3576L1551.06 86.3675L1553.06 86.3093ZM1558.05 109.883L1556.41 111.027L1556.42 111.04L1556.43 111.052L1558.05 109.883ZM1577.04 117.822L1576.86 119.814L1576.87 119.815L1576.88 119.816L1577.04 117.822ZM1642.03 2.52782C1651.56 2.52782 1659.51 3.12433 1665.9 4.29579L1666.62 0.361364C1659.91 -0.868185 1651.71 -1.47218 1642.03 -1.47218V2.52782ZM1665.92 4.29912C1672.37 5.41948 1677.56 7.13526 1681.56 9.39095L1683.53 5.90703C1679.01 3.36071 1673.35 1.52955 1666.6 0.358034L1665.92 4.29912ZM1681.58 9.40047C1685.58 11.6078 1688.59 14.3632 1690.68 17.6447L1694.06 15.4972C1691.56 11.5756 1688.02 8.3831 1683.51 5.89751L1681.58 9.40047ZM1690.68 17.6447C1692.83 21.0153 1694.41 25.0146 1695.41 29.6756L1699.32 28.8405C1698.24 23.7883 1696.49 19.3296 1694.06 15.4972L1690.68 17.6447ZM1695.41 29.6966C1696.47 34.4019 1697.08 39.7538 1697.24 45.764L1701.24 45.6569C1701.08 39.4437 1700.44 33.8273 1699.31 28.8196L1695.41 29.6966ZM1697.25 45.7818C1697.46 51.8653 1697.57 58.6075 1697.57 66.0098H1701.57C1701.57 58.5696 1701.46 51.7788 1701.24 45.639L1697.25 45.7818ZM1697.57 66.0098C1697.57 73.4121 1697.46 80.1544 1697.25 86.2379L1701.24 86.3806C1701.46 80.2408 1701.57 73.4501 1701.57 66.0098H1697.57ZM1697.24 86.2557C1697.08 92.2659 1696.47 97.6177 1695.41 102.323L1699.31 103.2C1700.44 98.1923 1701.08 92.5759 1701.24 86.3628L1697.24 86.2557ZM1695.41 102.344C1694.41 107.005 1692.83 111.004 1690.68 114.375L1694.06 116.522C1696.49 112.69 1698.24 108.231 1699.32 103.179L1695.41 102.344ZM1690.68 114.375C1688.59 117.661 1685.58 120.447 1681.56 122.711L1683.53 126.194C1688.03 123.656 1691.56 120.439 1694.06 116.522L1690.68 114.375ZM1681.58 122.701C1677.58 124.908 1672.38 126.599 1665.92 127.721L1666.6 131.662C1673.34 130.491 1679 128.69 1683.51 126.204L1681.58 122.701ZM1665.9 127.724C1659.51 128.895 1651.56 129.492 1642.03 129.492V133.492C1651.71 133.492 1659.91 132.888 1666.62 131.658L1665.9 127.724ZM1642.03 129.492H1594.72V133.492H1642.03V129.492ZM1594.72 129.492C1585.19 129.492 1577.21 128.895 1570.77 127.723L1570.05 131.659C1576.81 132.888 1585.04 133.492 1594.72 133.492V129.492ZM1570.75 127.721C1564.35 126.6 1559.17 124.91 1555.17 122.701L1553.24 126.204C1557.74 128.688 1563.37 130.49 1570.06 131.661L1570.75 127.721ZM1555.18 122.711C1551.17 120.446 1548.12 117.654 1545.97 114.357L1542.62 116.541C1545.17 120.446 1548.72 123.657 1553.22 126.194L1555.18 122.711ZM1545.98 114.375C1543.84 110.998 1542.22 106.991 1541.17 102.323L1537.27 103.2C1538.4 108.245 1540.18 112.697 1542.61 116.522L1545.98 114.375ZM1541.18 102.344C1540.17 97.6309 1539.58 92.2718 1539.42 86.2557L1535.42 86.3628C1535.59 92.57 1536.2 98.1792 1537.27 103.179L1541.18 102.344ZM1539.42 86.2557C1539.26 80.1652 1539.18 73.4169 1539.18 66.0098H1535.18C1535.18 73.4454 1535.26 80.23 1535.42 86.3628L1539.42 86.2557ZM1539.18 66.0098C1539.18 58.6028 1539.26 51.8545 1539.42 45.764L1535.42 45.6569C1535.26 51.7896 1535.18 58.5743 1535.18 66.0098H1539.18ZM1539.42 45.764C1539.58 39.7479 1540.17 34.3888 1541.18 29.6756L1537.27 28.8405C1536.2 33.8405 1535.59 39.4496 1535.42 45.6569L1539.42 45.764ZM1541.17 29.6966C1542.22 25.0287 1543.84 21.0219 1545.98 17.6447L1542.61 15.4972C1540.18 19.323 1538.4 23.7743 1537.27 28.8196L1541.17 29.6966ZM1545.97 17.6627C1548.12 14.3702 1551.16 11.6095 1555.17 9.40047L1553.24 5.89751C1548.73 8.38134 1545.17 11.5686 1542.62 15.4792L1545.97 17.6627ZM1555.18 9.39095C1559.19 7.1339 1564.35 5.41853 1570.75 4.29864L1570.06 0.358516C1563.37 1.5305 1557.73 3.36207 1553.22 5.90703L1555.18 9.39095ZM1570.77 4.29632C1577.21 3.12426 1585.19 2.52782 1594.72 2.52782V-1.47218C1585.04 -1.47218 1576.81 -0.868108 1570.05 0.360837L1570.77 4.29632ZM1594.72 2.52782H1642.03V-1.47218H1594.72V2.52782ZM1642.03 120.395C1648.99 120.395 1654.89 120.204 1659.71 119.816L1659.39 115.829C1654.71 116.205 1648.93 116.395 1642.03 116.395V120.395ZM1659.73 119.814C1664.65 119.367 1668.81 118.492 1672.16 117.14L1670.67 113.43C1667.8 114.588 1664.05 115.405 1659.36 115.831L1659.73 119.814ZM1672.16 117.14C1675.57 115.766 1678.29 113.751 1680.24 111.052L1676.99 108.713C1675.56 110.707 1673.48 112.294 1670.67 113.43L1672.16 117.14ZM1680.24 111.052C1682.15 108.404 1683.46 104.998 1684.26 100.939L1680.34 100.165C1679.61 103.854 1678.47 106.669 1676.99 108.713L1680.24 111.052ZM1684.26 100.939C1685.06 96.9126 1685.5 92.0408 1685.61 86.3481L1681.61 86.2704C1681.5 91.8187 1681.07 96.4418 1680.34 100.165L1684.26 100.939ZM1685.61 86.3669C1685.77 80.6669 1685.86 73.8802 1685.86 66.0098H1681.86C1681.86 73.8551 1681.77 80.6014 1681.61 86.2516L1685.61 86.3669ZM1685.86 66.0098C1685.86 58.1395 1685.77 51.3799 1685.61 45.734L1681.61 45.8505C1681.77 51.4457 1681.86 58.1644 1681.86 66.0098H1685.86ZM1685.61 45.7538C1685.5 40.0077 1685.06 35.1081 1684.26 31.0812L1680.34 31.855C1681.07 35.5768 1681.5 40.2266 1681.61 45.8307L1685.61 45.7538ZM1684.26 31.0812C1683.46 27.0217 1682.15 23.616 1680.24 20.9673L1676.99 23.3065C1678.47 25.3507 1679.61 28.1657 1680.34 31.855L1684.26 31.0812ZM1680.24 20.9673C1678.29 18.2683 1675.57 16.2533 1672.16 14.8799L1670.67 18.5893C1673.48 19.7261 1675.56 21.3126 1676.99 23.3065L1680.24 20.9673ZM1672.17 14.8846C1668.86 13.5236 1664.71 12.6769 1659.79 12.2853L1659.47 16.2727C1664.15 16.6451 1667.86 17.4354 1670.65 18.5847L1672.17 14.8846ZM1659.81 12.2874C1654.98 11.8434 1649.05 11.6242 1642.03 11.6242V15.6242C1648.98 15.6242 1654.78 15.8416 1659.44 16.2706L1659.81 12.2874ZM1642.03 11.6242H1594.72V15.6242H1642.03V11.6242ZM1594.72 11.6242C1587.7 11.6242 1581.74 11.8434 1576.86 12.2873L1577.22 16.2708C1581.94 15.8416 1587.77 15.6242 1594.72 15.6242V11.6242ZM1576.88 12.2855C1572.01 12.6775 1567.86 13.5246 1564.5 14.8799L1566 18.5893C1568.86 17.4345 1572.58 16.6446 1577.2 16.2726L1576.88 12.2855ZM1564.5 14.8799C1561.1 16.2533 1558.37 18.2683 1556.43 20.9673L1559.67 23.3065C1561.11 21.3126 1563.18 19.7261 1566 18.5893L1564.5 14.8799ZM1556.43 20.9673C1554.52 23.616 1553.2 27.0217 1552.4 31.0812L1556.33 31.855C1557.05 28.1657 1558.2 25.3507 1559.67 23.3065L1556.43 20.9673ZM1552.4 31.0812C1551.61 35.1081 1551.17 40.0077 1551.06 45.7538L1555.06 45.8307C1555.16 40.2266 1555.59 35.5768 1556.33 31.855L1552.4 31.0812ZM1551.06 45.7534C1550.95 51.3909 1550.89 58.1437 1550.89 66.0098H1554.89C1554.89 58.1603 1554.95 51.4347 1555.06 45.8311L1551.06 45.7534ZM1550.89 66.0098C1550.89 73.876 1550.95 80.656 1551.06 86.3477L1555.06 86.2708C1554.95 80.6123 1554.89 73.8593 1554.89 66.0098H1550.89ZM1551.06 86.3675C1551.22 92.0562 1551.69 96.921 1552.48 100.939L1556.41 100.165C1555.67 96.4334 1555.22 91.8034 1555.05 86.251L1551.06 86.3675ZM1552.48 100.939C1553.28 104.988 1554.56 108.384 1556.41 111.027L1559.69 108.738C1558.26 106.688 1557.14 103.864 1556.41 100.165L1552.48 100.939ZM1556.43 111.052C1558.37 113.751 1561.1 115.766 1564.5 117.14L1566 113.43C1563.18 112.294 1561.11 110.707 1559.67 108.713L1556.43 111.052ZM1564.5 117.14C1567.85 118.491 1571.99 119.367 1576.86 119.814L1577.22 115.831C1572.59 115.405 1568.87 114.589 1566 113.43L1564.5 117.14ZM1576.88 119.816C1581.75 120.204 1587.7 120.395 1594.72 120.395V116.395C1587.77 116.395 1581.93 116.205 1577.2 115.829L1576.88 119.816ZM1594.72 120.395H1642.03V116.395H1594.72V120.395Z" fill="black" fill-opacity="0.05" mask="url(#path-1-outside-1_953_58)"></path> </svg> 