<svg width="48" height="48" viewBox="0 0 48 48" fill="none" xmlns="http://www.w3.org/2000/svg">
<path fill-rule="evenodd" clip-rule="evenodd" d="M25.6424 5.91668C30.1 6.13576 34.2536 7.97395 37.4261 11.1486C40.8101 14.5347 42.6728 19.0358 42.671 23.8225C42.6669 33.7002 34.6256 41.7372 24.7473 41.7372C21.0325 41.7372 18.0805 40.5958 16.1744 39.5567L6.67273 42.0479L9.21561 32.7644C7.64708 30.0476 6.82173 26.9658 6.82302 23.8082C6.82699 13.9307 14.8676 5.89453 24.747 5.89453L25.6424 5.91668ZM16.6146 36.3135L17.1587 36.6361C19.446 37.9928 22.0679 38.7106 24.7411 38.7117H24.7472C32.9584 38.7117 39.6413 32.0318 39.6446 23.8214C39.6462 19.8428 38.0981 16.1017 35.2854 13.2872C32.4726 10.4726 28.7323 8.92162 24.7531 8.92033C16.5356 8.92033 9.85256 15.5995 9.84928 23.8093C9.84816 26.6229 10.6357 29.363 12.127 31.7336L12.4812 32.2971L10.9762 37.7917L16.6146 36.3135ZM33.7771 28.0826C33.6651 27.8957 33.3666 27.7838 32.9188 27.5597C32.4709 27.3356 30.2691 26.2527 29.8585 26.1032C29.448 25.954 29.1494 25.8794 28.8509 26.3274C28.5524 26.7754 27.6941 27.7838 27.4328 28.0826C27.1716 28.3813 26.9103 28.4187 26.4625 28.1946C26.0147 27.9706 24.5716 27.4978 22.861 25.9728C21.5296 24.7858 20.6308 23.32 20.3695 22.8719C20.1083 22.4238 20.3416 22.1814 20.5658 21.9583C20.7673 21.7577 21.0138 21.4355 21.2377 21.1741C21.4616 20.9128 21.5362 20.7259 21.6856 20.4273C21.8348 20.1285 21.7601 19.8672 21.6482 19.6431C21.5362 19.4189 20.6406 17.2156 20.2674 16.3193C19.9038 15.4465 19.5346 15.5647 19.2597 15.5509C18.9988 15.538 18.6999 15.5351 18.4014 15.5351C18.1028 15.5351 17.6176 15.6471 17.2071 16.0953C16.7966 16.5434 15.6396 17.6264 15.6396 19.8296C15.6396 22.033 17.2444 24.1614 17.4683 24.4602C17.6923 24.7591 20.6264 29.2802 25.119 31.2194C26.1875 31.6806 27.0217 31.956 27.6721 32.1623C28.745 32.503 29.7213 32.455 30.493 32.3397C31.3534 32.2112 33.1427 31.2568 33.5159 30.2113C33.8891 29.1654 33.8891 28.2692 33.7771 28.0826Z" fill="#2F2F2F"/>
</svg>
